<svg xmlns="http://www.w3.org/2000/svg" width="50.931" height="46.946" viewBox="0 0 50.931 46.946"><defs><style>.a{fill:#1edfd5;}</style></defs><g transform="translate(0 -20.031)"><g transform="translate(48.942 50.069)"><path class="a" d="M493.7,322.291a.994.994,0,1,0,.292.7A1,1,0,0,0,493.7,322.291Z" transform="translate(-492 -322)"/></g><g transform="translate(0 20.031)"><path class="a" d="M49.936,54.148a1,1,0,0,0-.995.995V62a2.988,2.988,0,0,1-2.984,2.984H4.974A2.988,2.988,0,0,1,2,62.2H15.153a.995.995,0,0,0,0-1.989H1.989V44.066A5.222,5.222,0,0,0,5.249,45.2H8.6v1.63a4.083,4.083,0,0,0,4.078,4.078h.289a4.083,4.083,0,0,0,4.078-4.078V45.2h16.84v1.63a4.083,4.083,0,0,0,4.078,4.078h.289a4.083,4.083,0,0,0,4.078-4.078V45.2h3.351a5.222,5.222,0,0,0,3.259-1.139v3.127a.995.995,0,1,0,1.989,0V33.951a4.979,4.979,0,0,0-4.974-4.974H36.821V25.2a5.177,5.177,0,0,0-5.171-5.171H19.281A5.177,5.177,0,0,0,14.11,25.2v3.775H4.974A4.979,4.979,0,0,0,0,33.951V62a4.979,4.979,0,0,0,4.974,4.974H45.957A4.979,4.979,0,0,0,50.931,62V55.142A1,1,0,0,0,49.936,54.148Zm-34.88-7.313a2.091,2.091,0,0,1-2.089,2.089h-.289a2.091,2.091,0,0,1-2.089-2.089V43.2h4.467Zm25.286,0a2.091,2.091,0,0,1-2.089,2.089h-.289a2.091,2.091,0,0,1-2.089-2.089V43.2h4.467ZM16.1,25.2a3.186,3.186,0,0,1,3.182-3.182H31.65A3.186,3.186,0,0,1,34.831,25.2v3.775H32.842V25a1,1,0,0,0-.995-.995H19.084a1,1,0,0,0-.995.995v3.973H16.1Zm14.753.8v2.978H20.079V26ZM1.989,33.951a2.988,2.988,0,0,1,2.984-2.984H45.957a2.988,2.988,0,0,1,2.984,2.984v6a3.263,3.263,0,0,1-3.259,3.259H42.331v-.709a1.3,1.3,0,0,0-1.293-1.293H35.179a1.3,1.3,0,0,0-1.293,1.293v.709H17.045v-.709a1.3,1.3,0,0,0-1.293-1.293H9.893A1.3,1.3,0,0,0,8.6,42.506v.709H5.249a3.263,3.263,0,0,1-3.259-3.259Z" transform="translate(0 -20.031)"/></g><g transform="translate(18.071 60.213)"><path class="a" d="M182.678,423.969h-.016a.995.995,0,0,0,0,1.99h.016a.995.995,0,1,0,0-1.99Z" transform="translate(-181.667 -423.969)"/></g></g></svg>