<svg xmlns="http://www.w3.org/2000/svg" width="50.457" height="49.903" viewBox="0 0 50.457 49.903"><defs><style>.a{fill:#1edfd5;}</style></defs><path class="a" d="M47.5,0H2.956A2.944,2.944,0,0,0,0,2.924V35.673A2.944,2.944,0,0,0,2.956,38.6H27.715a9.248,9.248,0,0,0,4.793,5.271v5.061a.974.974,0,0,0,.506.852,1,1,0,0,0,1-.023l2.45-1.5,2.45,1.5a1,1,0,0,0,1,.023.974.974,0,0,0,.506-.852V43.867A9.248,9.248,0,0,0,45.211,38.6H47.5a2.944,2.944,0,0,0,2.956-2.924V2.924A2.944,2.944,0,0,0,47.5,0ZM38.447,47.177l-1.465-.9a1,1,0,0,0-1.038,0l-1.465.9V44.533a9.384,9.384,0,0,0,3.967,0ZM36.463,42.8a7.213,7.213,0,1,1,7.293-7.212A7.261,7.261,0,0,1,36.463,42.8Zm12.023-7.123a.981.981,0,0,1-.985.975H45.664a9.159,9.159,0,0,0,.063-1.064,9.052,9.052,0,0,0-1.946-5.611,3.188,3.188,0,0,1,.96-.148.98.98,0,0,0,.985-.975V9.747a.98.98,0,0,0-.985-.975,3.14,3.14,0,0,1-3.154-3.119.98.98,0,0,0-.985-.975H29.275a.975.975,0,1,0,0,1.949H39.712a5.112,5.112,0,0,0,4.044,4V27.969a5.129,5.129,0,0,0-1.447.513,9.31,9.31,0,0,0-14.357,3.487H10.745a5.112,5.112,0,0,0-4.044-4V10.627a5.112,5.112,0,0,0,4.044-4H21.391a.975.975,0,1,0,0-1.949H9.855a.98.98,0,0,0-.985.975A3.14,3.14,0,0,1,5.716,8.772a.98.98,0,0,0-.985.975v19.1a.98.98,0,0,0,.985.975,3.14,3.14,0,0,1,3.154,3.119.98.98,0,0,0,.985.975h17.5a9.069,9.069,0,0,0-.091,2.729H2.956a.981.981,0,0,1-.985-.975V2.924a.981.981,0,0,1,.985-.975H47.5a.981.981,0,0,1,.985.975Zm0,0"/><path class="a" d="M325.143,315.086a5.143,5.143,0,1,0,5.143,5.143A5.148,5.148,0,0,0,325.143,315.086Zm0,8.228a3.086,3.086,0,1,1,3.086-3.086A3.089,3.089,0,0,1,325.143,323.314Zm0,0" transform="translate(-288.799 -284.788)"/><path class="a" d="M207.062,108.643a5.143,5.143,0,1,0,5.143-5.143A5.149,5.149,0,0,0,207.062,108.643Zm8.228,0a3.086,3.086,0,1,1-3.086-3.086A3.089,3.089,0,0,1,215.291,108.643Zm0,0" transform="translate(-186.873 -93.548)"/><path class="a" d="M159.691,229.529a1.028,1.028,0,0,0,1.029,1.029h17.754a1.029,1.029,0,1,0,0-2.057H160.72A1.028,1.028,0,0,0,159.691,229.529Zm0,0" transform="translate(-144.369 -206.279)"/><path class="a" d="M223.2,272.5h-6.171a1.029,1.029,0,0,0,0,2.057H223.2a1.029,1.029,0,0,0,0-2.057Zm0,0" transform="translate(-194.886 -246)"/><path class="a" d="M48.3,329.756a1.028,1.028,0,1,0-.3-.727A1.037,1.037,0,0,0,48.3,329.756Zm0,0" transform="translate(-43.063 -296.103)"/><path class="a" d="M49.029,48a1.029,1.029,0,1,0,.727.3A1.037,1.037,0,0,0,49.029,48Zm0,0" transform="translate(-43.063 -43.063)"/><path class="a" d="M445.029,48a1.029,1.029,0,1,0,.727.3A1.037,1.037,0,0,0,445.029,48Zm0,0" transform="translate(-400.537 -43.063)"/><path class="a" d="M248.087,50.057a1.029,1.029,0,1,0-.727-.3A1.035,1.035,0,0,0,248.087,50.057Zm0,0" transform="translate(-222.754 -43.063)"/></svg>