<svg xmlns="http://www.w3.org/2000/svg" width="50.457" height="53.047" viewBox="0 0 50.457 53.047"><defs><style>.a{fill:#1edfd5;}</style></defs><g transform="translate(428 350)"><g transform="translate(-428 -350)"><g transform="translate(0)"><path class="a" d="M16.268,197.836a1.039,1.039,0,0,0-1.036-1.036h-4.2a1.036,1.036,0,0,0,0,2.072h4.2A1.039,1.039,0,0,0,16.268,197.836Z" transform="translate(-10 -171.312)"/><path class="a" d="M145.879,110.083A1.057,1.057,0,1,0,147.692,109l-2.072-3.626a1.057,1.057,0,0,0-1.813,1.088Z" transform="translate(-126.349 -91.279)"/><path class="a" d="M26.891,99.889,37.251,105.9a1.022,1.022,0,0,0,1.036-1.761L27.927,98.128a1.022,1.022,0,0,0-1.036,1.761Z" transform="translate(-24.249 -85.281)"/><path class="a" d="M105.479,40.083A1.057,1.057,0,0,0,107.292,39l-2.072-3.626a1.057,1.057,0,1,0-1.813,1.088Z" transform="translate(-91.181 -30.344)"/><path class="a" d="M234.091,109.967a1.032,1.032,0,0,0,1.451-.363l2.072-3.626a1.057,1.057,0,0,0-1.813-1.088l-2.072,3.626A1.032,1.032,0,0,0,234.091,109.967Z" transform="translate(-204.614 -90.852)"/><path class="a" d="M274.491,40.767a1.032,1.032,0,0,0,1.451-.363l2.072-3.626a1.057,1.057,0,0,0-1.813-1.088l-2.072,3.626A1.032,1.032,0,0,0,274.491,40.767Z" transform="translate(-239.782 -30.614)"/><path class="a" d="M197.836,14.039A1.039,1.039,0,0,0,198.872,13V1.036a1.036,1.036,0,0,0-2.072,0V13A1.039,1.039,0,0,0,197.836,14.039Z" transform="translate(-172.608)"/><path class="a" d="M287.407,106.015a1,1,0,0,0,1.4.363l10.361-6.009a1.022,1.022,0,0,0-1.036-1.761l-10.361,6.009A1,1,0,0,0,287.407,106.015Z" transform="translate(-251.351 -85.707)"/><path class="a" d="M38.729,249.369a1,1,0,0,0-1.4-.363l-10.361,6.009a1.022,1.022,0,0,0,1.036,1.761l10.361-6.009A1,1,0,0,0,38.729,249.369Z" transform="translate(-24.327 -216.629)"/><path class="a" d="M276.032,198.872a1.036,1.036,0,0,0,0-2.072h-4.2a1.036,1.036,0,0,0,0,2.072Z" transform="translate(-237.024 -171.312)"/><path class="a" d="M299.088,255.337l-10.361-6.009a1.022,1.022,0,0,0-1.036,1.761l10.361,6.009a1.022,1.022,0,0,0,1.036-1.761Z" transform="translate(-251.273 -216.899)"/><path class="a" d="M151.311,137.413,154,133.631a1.189,1.189,0,0,0,.207-.725,1.045,1.045,0,0,0-1.14-.932l-4.714.414-1.969-4.3a1.288,1.288,0,0,0-.57-.622,1.107,1.107,0,0,0-1.4.518l-1.969,4.3-4.714-.414a1.14,1.14,0,0,0-.673.207,1.062,1.062,0,0,0-.259,1.451l2.746,3.833-2.694,3.833a1.189,1.189,0,0,0-.207.725,1.045,1.045,0,0,0,1.14.932l4.714-.414,1.969,4.3a1.01,1.01,0,0,0,.518.518,1.107,1.107,0,0,0,1.4-.518l2.02-4.248,4.714.414a1.139,1.139,0,0,0,.673-.207,1.062,1.062,0,0,0,.259-1.451Zm-2.176.57,1.813,2.59-3.212-.311a1.12,1.12,0,0,0-1.036.622l-1.347,2.9-1.347-2.9a1.006,1.006,0,0,0-1.088-.57l-3.108.311,1.865-2.59a1.091,1.091,0,0,0,0-1.243l-1.813-2.59,3.212.311a1.12,1.12,0,0,0,1.036-.622l1.347-2.9,1.347,2.9a.921.921,0,0,0,1.088.57l3.108-.311-1.865,2.59A1.091,1.091,0,0,0,149.135,137.982Z" transform="translate(-120.229 -110.889)"/><path class="a" d="M276.02,330.969a1.057,1.057,0,0,0-1.813,1.088l2.072,3.626a1.057,1.057,0,0,0,1.813-1.088Z" transform="translate(-239.861 -287.661)"/><path class="a" d="M356.432,196.8h-4.2a1.036,1.036,0,1,0,0,2.072h4.2a1.036,1.036,0,0,0,0-2.072Z" transform="translate(-307.011 -171.312)"/><path class="a" d="M235.62,260.969a1.057,1.057,0,0,0-1.813,1.088l2.072,3.626a1.057,1.057,0,0,0,1.813-1.088Z" transform="translate(-204.693 -226.727)"/><path class="a" d="M147.251,260.928a1.032,1.032,0,0,0-1.451.363l-2.072,3.626A1.057,1.057,0,0,0,145.541,266l2.072-3.626A1.032,1.032,0,0,0,147.251,260.928Z" transform="translate(-126.27 -226.996)"/><path class="a" d="M106.851,330.128a1.032,1.032,0,0,0-1.451.363l-2.072,3.626a1.057,1.057,0,1,0,1.813,1.088l2.072-3.626A1.032,1.032,0,0,0,106.851,330.128Z" transform="translate(-91.102 -287.234)"/><path class="a" d="M95.632,196.8h-4.2a1.036,1.036,0,1,0,0,2.072h4.2a1.036,1.036,0,1,0,0-2.072Z" transform="translate(-79.987 -171.312)"/><path class="a" d="M197.836,301.2a1.039,1.039,0,0,0-1.036,1.036V314.2a1.036,1.036,0,0,0,2.072,0V302.236A1.039,1.039,0,0,0,197.836,301.2Z" transform="translate(-172.608 -262.192)"/></g></g></g></svg>