<svg xmlns="http://www.w3.org/2000/svg" width="36.496" height="54.175" viewBox="0 0 36.496 54.175"><defs><style>.a{fill:#1edfd5;}</style></defs><g transform="translate(-0.5 0.001)"><path class="a" d="M164.922,56.623a1.058,1.058,0,0,0,1.486-.176l.018-.022a1.058,1.058,0,0,0-1.663-1.309l-.017.022A1.058,1.058,0,0,0,164.922,56.623Zm0,0" transform="translate(-146.664 -48.923)"/><path class="a" d="M16.542,119.168a1.058,1.058,0,0,0-1.486.175l-1.283,1.626a.966.966,0,0,1-1.357.159.97.97,0,0,1-.342-.978.961.961,0,0,0,.019-.107l4.436-18.937a1.058,1.058,0,0,0-1.03-1.3H3.591a.975.975,0,0,1-.706-1.647c.023-.024.044-.049.065-.075l14.91-18.9A1.058,1.058,0,1,0,16.2,77.879L1.316,96.741a3.091,3.091,0,0,0,2.275,5.184H14.164l-4.157,17.744a1.078,1.078,0,0,0-.022.136,3.1,3.1,0,0,0,1.119,2.985,3.058,3.058,0,0,0,1.9.664,3.2,3.2,0,0,0,.365-.021,3.063,3.063,0,0,0,2.06-1.151l1.283-1.626A1.058,1.058,0,0,0,16.542,119.168Zm0,0" transform="translate(0 -69.28)"/><path class="a" d="M193.195,21.526H182.621l4.157-17.744a.964.964,0,0,0,.022-.136,3.082,3.082,0,0,0-5.448-2.477l-1.342,1.7a1.058,1.058,0,0,0,1.662,1.311l1.342-1.7a.966.966,0,0,1,1.7.818,1.068,1.068,0,0,0-.019.107l-4.436,18.937a1.059,1.059,0,0,0,1.03,1.3h11.908a.974.974,0,0,1,.706,1.647c-.023.024-.044.049-.064.075L178.866,44.335a1.058,1.058,0,1,0,1.661,1.311L195.469,26.71a3.091,3.091,0,0,0-2.275-5.184Zm0,0" transform="translate(-159.29 0)"/><path class="a" d="M162.407,437.994a1.058,1.058,0,0,0-1.486.173l-.018.022a1.058,1.058,0,1,0,1.659,1.314l.018-.022A1.058,1.058,0,0,0,162.407,437.994Zm0,0" transform="translate(-143.226 -391.446)"/></g></svg>